/vscmnt/brussel_pixiu_data/_data_brussel/112/vsc11236/PredSimResults/SUBJ09_Dhondt2024_3seg/weighted/worker_03.mot
version=1
nRows=4
nColumns=124
inDegrees=yes
endheader
                time	         pelvis_tilt	         pelvis_list	     pelvis_rotation	           pelvis_tx	           pelvis_ty	           pelvis_tz	       hip_flexion_r	     hip_adduction_r	      hip_rotation_r	        knee_angle_r	       ankle_angle_r	    subtalar_angle_r	         mtp_angle_r	       hip_flexion_l	     hip_adduction_l	      hip_rotation_l	        knee_angle_l	       ankle_angle_l	    subtalar_angle_l	         mtp_angle_l	    lumbar_extension	      lumbar_bending	     lumbar_rotation	          arm_flex_r	           arm_add_r	           arm_rot_r	        elbow_flex_r	          arm_flex_l	           arm_add_l	           arm_rot_l	        elbow_flex_l	glut_med1_r/activation	glut_med2_r/activation	glut_med3_r/activation	glut_min1_r/activation	glut_min2_r/activation	glut_min3_r/activation	semimem_r/activation	semiten_r/activation	bifemlh_r/activation	bifemsh_r/activation	    sar_r/activation	add_long_r/activation	add_brev_r/activation	add_mag1_r/activation	add_mag2_r/activation	add_mag3_r/activation	    tfl_r/activation	   pect_r/activation	   grac_r/activation	glut_max1_r/activation	glut_max2_r/activation	glut_max3_r/activation	iliacus_r/activation	  psoas_r/activation	quad_fem_r/activation	    gem_r/activation	   peri_r/activation	rect_fem_r/activation	vas_med_r/activation	vas_int_r/activation	vas_lat_r/activation	med_gas_r/activation	lat_gas_r/activation	 soleus_r/activation	tib_post_r/activation	flex_dig_r/activation	flex_hal_r/activation	tib_ant_r/activation	per_brev_r/activation	per_long_r/activation	per_tert_r/activation	ext_dig_r/activation	ext_hal_r/activation	glut_med1_l/activation	glut_med2_l/activation	glut_med3_l/activation	glut_min1_l/activation	glut_min2_l/activation	glut_min3_l/activation	semimem_l/activation	semiten_l/activation	bifemlh_l/activation	bifemsh_l/activation	    sar_l/activation	add_long_l/activation	add_brev_l/activation	add_mag1_l/activation	add_mag2_l/activation	add_mag3_l/activation	    tfl_l/activation	   pect_l/activation	   grac_l/activation	glut_max1_l/activation	glut_max2_l/activation	glut_max3_l/activation	iliacus_l/activation	  psoas_l/activation	quad_fem_l/activation	    gem_l/activation	   peri_l/activation	rect_fem_l/activation	vas_med_l/activation	vas_int_l/activation	vas_lat_l/activation	med_gas_l/activation	lat_gas_l/activation	 soleus_l/activation	tib_post_l/activation	flex_dig_l/activation	flex_hal_l/activation	tib_ant_l/activation	per_brev_l/activation	per_long_l/activation	per_tert_l/activation	ext_dig_l/activation	ext_hal_l/activation	 ercspn_r/activation	 ercspn_l/activation	 intobl_r/activation	 intobl_l/activation	 extobl_r/activation	 extobl_l/activation	
          0.57346779	         -2.92931132	          2.10449503	         -2.32005091	          0.66522264	          0.98678503	          0.00315119	        -14.70632509	          0.41690452	          7.56989914	         -6.31176898	          5.68121021	         -0.64191891	         17.93828045	         23.69382908	          3.56195626	          0.29580637	         -3.95860895	          5.39529381	         -5.07694305	          0.18680564	         -3.83088294	         -1.44963940	          1.39102589	          1.77129050	        -13.69753213	         18.78675473	         49.05528874	        -10.25077625	        -13.45599751	         12.72461739	         30.64641781	          0.21376931	          0.10459157	          0.06397248	          0.31711886	          0.24737970	          0.16457362	          0.01003795	          0.01001118	          0.01000922	          0.05179285	          0.09895144	          0.01000327	          0.01000362	          0.01000579	          0.01002016	          0.01001172	          0.37690055	          0.01001500	          0.01002708	          0.01965071	          0.01201787	          0.01004331	          0.29474552	          0.49252852	          0.01190736	          0.01784181	          0.09039454	          0.22890967	          0.01001513	          0.01001523	          0.01001369	          0.36164007	          0.45638164	          0.35309339	          0.31509464	          0.36509003	          0.44348275	          0.01418636	          0.17152994	          0.24126990	          0.02089114	          0.01703519	          0.01570935	          0.01670800	          0.01415017	          0.01002387	          0.01419577	          0.01418639	          0.01002638	          0.04972281	          0.07529298	          0.22848633	          0.01000974	          0.01001301	          0.13688110	          0.15306263	          0.16091868	          0.14678818	          0.09033360	          0.01001090	          0.02346891	          0.05201488	          0.01194827	          0.02469297	          0.04023912	          0.01000287	          0.01000350	          0.01774977	          0.01001083	          0.01000371	          0.01001431	          0.06179389	          0.06271331	          0.05255650	          0.01000059	          0.01000185	          0.01000033	          0.01191231	          0.01191395	          0.01191357	          0.24956058	          0.19482410	          0.13794983	          0.13398982	          0.28522706	          0.04706926	          0.01000037	          0.02004691	          0.01000064	          0.03951018	          0.01000081	          0.07239791	
          0.58493715	         -2.92402088	          2.42105543	         -2.44531690	          0.68126435	          0.98634654	          0.00287753	        -14.77666311	          0.06654034	          7.25027162	         -7.80271072	          4.83541204	         -0.38156999	         19.35109934	         22.78283806	          4.12940017	          0.40971080	         -3.01934726	          4.45513583	         -5.28226083	          0.20427638	         -3.64381739	         -1.92482029	          1.47402966	          1.29330555	        -13.72402709	         18.77821595	         50.15292847	        -10.77100828	        -13.45043986	         12.32949854	         30.15387282	          0.20576843	          0.08780724	          0.05370645	          0.26623501	          0.20768267	          0.13816388	          0.01001598	          0.01000400	          0.01000218	          0.04348163	          0.08307547	          0.04270613	          0.01001067	          0.01000873	          0.01002208	          0.01000770	          0.31642381	          0.03359541	          0.01006243	          0.01651002	          0.01010259	          0.01001328	          0.24744883	          0.41349084	          0.01000478	          0.01498235	          0.07588851	          0.19217675	          0.01000994	          0.01000962	          0.01000824	          0.32959740	          0.41765088	          0.32801051	          0.30164376	          0.37132398	          0.43757584	          0.01190987	          0.14402637	          0.23963537	          0.01753883	          0.01430150	          0.01318880	          0.01402694	          0.01188424	          0.01000363	          0.01191858	          0.01191211	          0.01002539	          0.04174440	          0.06321145	          0.19182111	          0.01000143	          0.01000671	          0.11829723	          0.23135108	          0.19871952	          0.19450399	          0.07584805	          0.01001083	          0.04026711	          0.04367713	          0.01004139	          0.02073314	          0.08938016	          0.01000371	          0.01000283	          0.02591264	          0.19324046	          0.05744435	          0.02012457	          0.10496202	          0.10537120	          0.08849162	          0.01000571	          0.01000376	          0.01296301	          0.01000089	          0.01000385	          0.01000391	          0.28626330	          0.19163176	          0.11719489	          0.18543858	          0.32632410	          0.03951659	          0.01569740	          0.01682999	          0.01000237	          0.03316975	          0.01000207	          0.06077966	
          0.59640651	         -2.91385376	          2.74438852	         -2.55465252	          0.69759461	          0.98591878	          0.00260364	        -14.75630589	         -0.29277600	          6.89760023	         -9.46301520	          3.82951234	         -0.07965275	         20.81366435	         21.86553936	          4.66226124	          0.54623839	         -2.61654562	          3.11446401	         -5.45799343	          0.22465248	         -3.43736594	         -2.41250507	          1.54917836	          0.75955306	        -13.74461906	         18.76703147	         51.18361096	        -11.23490015	        -13.45673378	         12.11095868	         29.52576742	          0.17274765	          0.07371645	          0.04508794	          0.22351182	          0.17435531	          0.11599242	          0.01188855	          0.01063438	          0.01191277	          0.03650413	          0.06974543	          0.08601614	          0.01193192	          0.01201789	          0.01211252	          0.02581188	          0.26564741	          0.02821629	          0.01018864	          0.01388737	          0.01193923	          0.01194822	          0.20773901	          0.34713500	          0.01191367	          0.01258634	          0.06371058	          0.16133973	          0.04049723	          0.04049682	          0.04049708	          0.28069859	          0.36756245	          0.28865855	          0.28464468	          0.31193571	          0.39170218	          0.01000045	          0.12092041	          0.23840247	          0.01472458	          0.01200655	          0.01107314	          0.01177608	          0.01000123	          0.02910152	          0.01000651	          0.01000211	          0.01000259	          0.03504654	          0.05307449	          0.16103806	          0.02005664	          0.01011712	          0.10031357	          0.27615808	          0.26000668	          0.16392845	          0.06367803	          0.01000254	          0.03384978	          0.16555501	          0.01002123	          0.01740902	          0.07503741	          0.01417066	          0.01419448	          0.21430148	          0.16223042	          0.04822640	          0.01689546	          0.08811994	          0.08846350	          0.07429248	          0.01419019	          0.01422833	          0.01299610	          0.01963618	          0.01582162	          0.01696843	          0.24756437	          0.21213879	          0.14133209	          0.15568092	          0.27634196	          0.08576561	          0.02096905	          0.01412927	          0.01690390	          0.02784681	          0.01191861	          0.05102591	
          0.60787586	         -2.90044494	          3.08877588	         -2.64543148	          0.71409861	          0.98553514	          0.00237448	        -14.62220490	         -0.67122142	          6.50259100	        -11.31207558	          2.65013214	          0.24695184	         22.27685650	         20.92323025	          5.12047630	          0.73680119	         -2.42768068	          1.45021625	         -5.62696766	          0.22289002	         -3.21978684	         -2.93240873	          1.61247230	          0.18613173	        -13.74717583	         18.75223617	         52.14034449	        -11.62093314	        -13.48743206	         12.09766117	         28.75228481	          0.22771183	          0.06188686	          0.03785244	          0.31987479	          0.14637733	          0.09737875	          0.01005215	          0.01000451	          0.01000479	          0.03064650	          0.05855535	          0.08717658	          0.01002237	          0.01009295	          0.01017947	          0.02167388	          0.22308531	          0.11068055	          0.01002224	          0.01167668	          0.01004485	          0.01003940	          0.17440364	          0.29218871	          0.01000467	          0.01057002	          0.05348666	          0.13544858	          0.03399983	          0.03399942	          0.03399941	          0.23565249	          0.30857789	          0.24233490	          0.25214104	          0.26188185	          0.32884719	          0.01000059	          0.14736316	          0.22078810	          0.01236233	          0.01008006	          0.01000288	          0.23414623	          0.22051527	          0.24560632	          0.19960122	          0.06724456	          0.23231985	          0.03985057	          0.04458506	          0.13519522	          0.01684360	          0.01052491	          0.08421590	          0.23184126	          0.21828304	          0.13762438	          0.05346237	          0.01022883	          0.02842393	          0.13898979	          0.01000594	          0.01461708	          0.06299704	          0.01191470	          0.01191855	          0.17991207	          0.13620005	          0.14277171	          0.01418461	          0.07398211	          0.07427063	          0.06237332	          0.01191335	          0.01194559	          0.01092444	          0.01648525	          0.01328404	          0.01424667	          0.40761207	          0.23012409	          0.11866456	          0.51020290	          0.39290454	          0.19563773	          0.03495233	          0.02004201	          0.01419124	          0.02398067	          0.01000709	          0.04283740	
